<?xml version="1.0" standalone="no"?>
<!DOCTYPE svg PUBLIC "-//W3C//DTD SVG 20010904//EN"
 "http://www.w3.org/TR/2001/REC-SVG-20010904/DTD/svg10.dtd">
<svg version="1.0" xmlns="http://www.w3.org/2000/svg"
 width="1024.000000pt" height="1536.000000pt" viewBox="0 0 1024.000000 1536.000000"
 preserveAspectRatio="xMidYMid meet">

<g transform="translate(0.000000,1536.000000) scale(0.100000,-0.100000)"
fill="#000000" stroke="none">
<path d="M4903 9074 c-24 -10 -52 -71 -78 -169 -15 -55 -94 -368 -176 -695
-82 -327 -158 -613 -168 -635 -36 -81 -136 -117 -215 -80 -72 34 -70 26 -76
540 l-5 460 -80 0 -80 0 0 -490 0 -490 28 -58 c45 -91 104 -122 252 -133 196
-15 303 62 353 255 29 110 248 1002 268 1093 10 43 20 75 23 73 2 -3 17 -67
32 -143 16 -75 42 -202 59 -282 18 -80 42 -194 55 -255 49 -226 186 -852 200
-910 8 -33 41 -179 74 -325 106 -463 112 -479 187 -480 56 0 71 23 113 175 55
199 181 633 192 661 l9 24 -94 0 -93 0 -12 -42 c-15 -55 -66 -279 -89 -385
-16 -78 -32 -109 -32 -63 0 12 -7 49 -15 83 -8 34 -35 157 -60 272 -25 116
-59 269 -75 340 -16 72 -45 204 -64 296 -19 91 -42 194 -50 230 -8 35 -38 172
-66 304 -111 524 -168 772 -181 797 -5 10 -18 22 -29 28 -19 10 -85 12 -107 4z"/>
<path d="M2353 8495 c-87 -38 -80 -175 12 -205 20 -7 39 -9 42 -6 4 3 -8 9
-25 12 -42 8 -73 44 -79 92 -4 34 -1 44 25 73 26 29 37 34 77 34 39 0 51 -5
71 -28 43 -50 28 -131 -29 -160 -22 -11 -26 -16 -14 -16 10 -1 32 12 48 28 22
23 29 39 29 70 0 98 -69 145 -157 106z"/>
<path d="M1120 8490 c0 -6 21 -61 46 -123 78 -188 112 -272 221 -542 57 -143
125 -308 150 -367 l46 -108 93 0 92 0 27 73 c15 39 51 133 80 207 30 74 83
212 119 305 35 94 99 257 140 364 42 106 76 195 76 197 0 2 -40 4 -89 4 -59 0
-92 -4 -98 -12 -6 -7 -31 -69 -56 -138 -25 -69 -97 -262 -161 -430 -111 -297
-140 -383 -117 -350 6 8 11 10 11 5 0 -17 -21 -34 -36 -28 -7 2 -11 10 -8 18
3 7 -11 55 -32 106 -20 52 -71 186 -114 299 -107 282 -194 503 -203 518 -10
14 -57 16 -57 2 0 -5 12 -10 28 -10 24 0 30 -6 46 -52 10 -29 56 -149 102
-267 46 -118 84 -219 83 -225 0 -14 -208 505 -209 522 0 7 -16 12 -42 13 -24
0 -37 3 -30 6 25 10 11 20 -30 20 -34 1 -38 -1 -18 -6 23 -7 22 -8 -13 -12
-28 -4 -36 -2 -33 8 3 7 1 13 -4 13 -6 0 -10 -5 -10 -10z m1070 -16 c0 -6 -8
-31 -19 -55 -10 -24 -49 -122 -86 -216 -37 -95 -69 -173 -72 -173 -5 0 5 34
22 75 18 41 78 195 110 279 14 40 22 73 17 78 -5 5 -35 8 -67 6 l-58 -3 -24
-60 c-14 -33 -31 -73 -39 -90 -22 -46 -7 4 28 96 l29 76 79 0 c53 -1 80 -5 80
-13z m-996 -126 c4 -12 -7 6 -24 41 -16 35 -30 69 -29 75 0 13 44 -82 53 -116z
m52 -122 c13 -33 20 -56 15 -51 -9 10 -61 133 -61 144 1 12 23 -33 46 -93z
m688 -25 c-9 -23 -18 -40 -20 -38 -2 2 4 22 13 45 9 23 18 40 20 38 2 -2 -4
-22 -13 -45z m-640 -91 l7 -25 -15 25 c-17 28 -21 50 -7 35 5 -6 12 -21 15
-35z m592 -36 c-44 -122 -52 -143 -61 -151 -4 -5 -5 1 -1 12 46 127 80 214 83
212 1 -2 -8 -35 -21 -73z m-547 -74 c16 -41 44 -108 61 -149 17 -41 29 -76 27
-78 -3 -2 -10 11 -17 29 -7 18 -32 78 -55 133 -23 55 -46 111 -50 125 -14 46
3 16 34 -60z m612 -141 c-32 -85 -66 -170 -75 -189 -27 -61 -17 -17 13 55 15
39 48 121 71 182 24 62 45 111 47 109 2 -2 -23 -72 -56 -157z m-142 12 c-6
-18 -13 -30 -15 -28 -2 2 1 18 7 36 6 18 13 30 15 28 2 -2 -1 -18 -7 -36z
m-260 -33 c11 -34 19 -63 17 -65 -3 -3 -46 108 -46 121 0 19 11 -1 29 -56z
m230 -47 c-6 -18 -13 -30 -15 -28 -2 2 1 18 7 36 6 18 13 30 15 28 2 -2 -1
-18 -7 -36z m-329 -66 c0 -5 -5 -3 -10 5 -5 8 -10 20 -10 25 0 6 5 3 10 -5 5
-8 10 -19 10 -25z m153 -30 c16 -45 14 -65 -2 -22 -16 42 -22 67 -18 67 3 0
12 -20 20 -45z m138 -2 c-12 -20 -14 -14 -5 12 4 9 9 14 11 11 3 -2 0 -13 -6
-23z m-252 -73 c0 -8 -9 8 -19 35 -11 28 -20 52 -19 55 2 11 38 -76 38 -90z
m227 4 c-8 -21 -15 -34 -15 -28 -1 15 20 76 25 71 2 -2 -2 -21 -10 -43z m-83
-4 c3 -11 1 -18 -4 -14 -5 3 -9 12 -9 20 0 20 7 17 13 -6z m218 -17 c-12 -20
-14 -14 -5 12 4 9 9 14 11 11 3 -2 0 -13 -6 -23z m-331 -58 c0 -5 -5 -3 -10 5
-5 8 -10 20 -10 25 0 6 5 3 10 -5 5 -8 10 -19 10 -25z m281 -76 c-17 -41 -30
-70 -30 -64 -1 14 51 146 56 141 2 -2 -10 -37 -26 -77z m-243 -14 c-3 -3 -9 2
-12 12 -6 14 -5 15 5 6 7 -7 10 -15 7 -18z m22 -50 c0 -5 -5 -3 -10 5 -5 8
-10 20 -10 25 0 6 5 3 10 -5 5 -8 10 -19 10 -25z m190 -25 c0 -6 -35 -9 -87
-8 l-88 2 85 6 c47 3 86 7 88 8 1 1 2 -2 2 -8z"/>
<path d="M6052 8490 c-68 -14 -146 -54 -195 -99 -112 -103 -127 -280 -34 -393
54 -65 115 -99 278 -154 196 -65 259 -109 259 -180 0 -105 -99 -173 -254 -174
-119 0 -267 44 -328 98 -17 14 -18 10 -18 -76 l0 -91 56 -25 c87 -40 152 -57
245 -63 205 -14 367 57 437 191 23 44 26 63 27 146 0 87 -3 100 -30 150 -44
80 -107 119 -285 176 -171 55 -209 73 -244 114 -19 23 -26 42 -26 73 1 52 15
79 60 112 46 34 90 45 180 45 86 0 163 -18 232 -54 l48 -25 0 84 c0 84 0 85
-31 101 -61 31 -126 45 -229 49 -58 2 -124 0 -148 -5z"/>
<path d="M2358 8464 c-19 -10 -25 -19 -21 -31 4 -11 3 -14 -6 -9 -9 6 -10 -4
-5 -41 7 -59 11 -63 60 -69 50 -6 85 13 96 51 9 35 -7 104 -25 106 -54 7 -76
5 -99 -7z m62 -34 c0 -5 -2 -10 -4 -10 -3 0 -8 5 -11 10 -3 6 -1 10 4 10 6 0
11 -4 11 -10z"/>
<path d="M2757 8333 c-4 -3 -7 -48 -7 -100 l0 -93 -65 0 -65 0 0 -75 0 -75 64
0 64 0 4 -252 c5 -281 9 -300 72 -356 48 -42 123 -58 218 -46 l73 9 3 75 3 76
-63 -1 c-35 0 -74 4 -88 8 l-25 8 25 -15 c14 -9 19 -15 12 -16 -23 0 -72 57
-71 82 1 19 2 17 10 -9 5 -18 14 -35 19 -38 14 -9 12 9 -2 23 -10 9 -14 74
-16 232 l-3 220 100 0 101 0 0 75 0 75 -100 0 -100 0 0 100 0 100 -78 0 c-43
0 -82 -3 -85 -7z m151 -100 l-2 -98 -3 92 -4 92 -62 -2 -62 -2 -3 -97 c-3
-109 3 -102 -86 -98 -41 2 -48 0 -43 -14 4 -9 2 -16 -3 -16 -6 0 -10 9 -10 20
0 18 7 20 65 20 l65 0 0 100 0 100 75 0 75 0 -2 -97z m200 -168 l3 -65 -98 2
-98 2 94 3 93 4 -6 52 c-3 29 -6 53 -6 54 0 1 -39 4 -87 6 l-88 3 95 2 95 2 3
-65z m-375 -62 c-18 -2 -48 -2 -65 0 -18 2 -4 4 32 4 36 0 50 -2 33 -4z m34
-345 c-1 -62 -3 -12 -3 112 0 124 2 174 3 113 2 -62 2 -164 0 -225z m140 50
c-1 -51 -3 -12 -3 87 0 99 2 141 3 93 2 -48 2 -129 0 -180z m-130 -210 c-3 -8
-6 -5 -6 6 -1 11 2 17 5 13 3 -3 4 -12 1 -19z m331 -75 c-2 -49 -7 -67 -18
-70 -12 -4 -12 -3 -2 5 10 7 13 27 10 71 -1 33 1 61 5 61 4 0 7 -30 5 -67z
m-35 50 c-7 -2 -19 -2 -25 0 -7 3 -2 5 12 5 14 0 19 -2 13 -5z m-224 -86 c14
-9 21 -17 14 -17 -15 0 -73 58 -73 73 0 7 8 0 17 -14 9 -14 28 -33 42 -42z
m66 -27 c19 -8 19 -9 -2 -9 -12 -1 -25 4 -28 9 -7 12 2 12 30 0z"/>
<path d="M7877 8159 c-47 -11 -104 -40 -141 -73 -16 -14 -30 -26 -30 -26 -1 0
-1 19 -1 41 l0 42 -80 0 -80 0 0 -394 0 -394 82 -3 82 -3 3 263 c3 299 5 305
87 363 38 27 51 30 116 30 83 0 115 -16 150 -76 18 -31 20 -57 25 -304 l5
-270 80 0 80 0 3 240 c4 353 -10 430 -97 508 -65 58 -178 81 -284 56z"/>
<path d="M3415 8142 c-128 -38 -144 -55 -140 -140 2 -37 7 -68 12 -69 4 -1 35
11 68 26 33 16 85 34 115 41 123 27 230 -29 230 -121 l0 -40 -35 6 c-19 3 -50
7 -69 10 -45 7 -160 -11 -211 -34 -56 -25 -117 -79 -111 -100 3 -9 -2 -27 -10
-41 -14 -23 -14 -16 2 28 5 11 4 14 -3 7 -19 -19 -33 -78 -33 -139 0 -111 70
-212 165 -237 54 -15 172 -6 215 16 19 9 47 29 62 43 28 26 33 24 40 -23 3
-18 12 -20 81 -23 l78 -3 -3 308 c-3 306 -3 308 -28 358 -14 28 -30 50 -37 50
-15 0 -28 13 -28 28 0 7 -22 23 -50 37 -67 33 -219 39 -310 12z m90 -1 c-22
-4 -56 -10 -75 -14 -34 -6 -34 -6 5 8 22 7 56 13 75 13 l35 -1 -40 -6z m113 2
c-10 -2 -26 -2 -35 0 -10 3 -2 5 17 5 19 0 27 -2 18 -5z m69 -9 c-3 -3 -12 -4
-19 -1 -8 3 -5 6 6 6 11 1 17 -2 13 -5z m-331 -34 c-22 -11 -41 -18 -43 -16
-5 4 59 36 72 35 6 0 -8 -9 -29 -19z m-59 -82 c-3 -7 -5 -2 -5 12 0 14 2 19 5
13 2 -7 2 -19 0 -25z m256 5 c-13 -2 -35 -2 -50 0 -16 2 -5 4 22 4 28 0 40 -2
28 -4z m138 -60 c13 -16 12 -17 -3 -4 -10 7 -18 15 -18 17 0 8 8 3 21 -13z
m-371 -8 c0 -2 -7 -5 -15 -9 -9 -3 -15 0 -15 9 0 9 6 12 15 9 8 -4 15 -7 15
-9z m527 -7 c-3 -8 -6 -5 -6 6 -1 11 2 17 5 13 3 -3 4 -12 1 -19z m-130 -85
c-3 -10 -5 -4 -5 12 0 17 2 24 5 18 2 -7 2 -21 0 -30z m-327 -58 c0 -2 -10 -9
-22 -15 -22 -11 -22 -10 -4 4 21 17 26 19 26 11z m467 -57 c-2 -13 -4 -3 -4
22 0 25 2 35 4 23 2 -13 2 -33 0 -45z m-167 -43 c13 -8 13 -87 -1 -122 -31
-83 -134 -125 -227 -92 -40 14 -62 49 -62 98 0 84 90 136 218 126 35 -2 67 -7
72 -10z m167 -32 c-3 -10 -5 -2 -5 17 0 19 2 27 5 18 2 -10 2 -26 0 -35z
m-610 -55 c-3 -7 -5 -2 -5 12 0 14 2 19 5 13 2 -7 2 -19 0 -25z m610 -5 c-3
-10 -5 -4 -5 12 0 17 2 24 5 18 2 -7 2 -21 0 -30z m-610 -75 c-3 -8 -6 -5 -6
6 -1 11 2 17 5 13 3 -3 4 -12 1 -19z m17 -54 c3 -8 2 -12 -4 -9 -6 3 -10 10
-10 16 0 14 7 11 14 -7z"/>
<path d="M8673 8146 c-154 -50 -265 -192 -279 -356 -20 -233 116 -414 339
-453 84 -14 199 1 280 37 l57 25 0 85 0 85 -45 -26 c-60 -33 -137 -53 -207
-53 -182 0 -298 163 -244 344 20 65 54 106 117 141 48 27 63 30 139 29 85 0
167 -24 211 -61 8 -7 19 -13 23 -13 4 0 5 39 4 87 l-3 88 -60 24 c-49 21 -80
25 -175 28 -77 2 -129 -2 -157 -11z"/>
<path d="M6600 8142 c0 -9 97 -244 207 -502 24 -58 63 -149 85 -202 l41 -97
-66 -143 c-36 -79 -68 -155 -72 -168 l-6 -25 91 3 c82 3 92 6 100 25 5 12 71
166 146 342 75 176 159 374 186 440 28 66 67 162 89 214 21 52 39 98 39 103 0
4 -39 8 -87 8 l-88 -1 -52 -127 c-28 -70 -82 -205 -119 -299 -61 -158 -84
-201 -84 -157 0 10 -35 105 -78 213 -43 108 -94 235 -113 283 l-34 88 -77 0
c-42 0 -83 3 -92 6 -9 3 -16 2 -16 -4z"/>
<path d="M2310 7745 l0 -395 85 0 85 0 0 395 0 395 -85 0 -85 0 0 -395z m160
5 l0 -380 -75 0 -75 0 0 380 0 380 75 0 75 0 0 -380z"/>
<path d="M2330 7749 l0 -369 65 0 65 0 0 370 0 371 -65 -2 -65 -2 0 -368z"/>
<path d="M3785 8080 c3 -5 8 -10 11 -10 2 0 4 5 4 10 0 6 -5 10 -11 10 -5 0
-7 -4 -4 -10z"/>
</g>
</svg>
