<?xml version="1.0" standalone="no"?>
<!DOCTYPE svg PUBLIC "-//W3C//DTD SVG 20010904//EN"
 "http://www.w3.org/TR/2001/REC-SVG-20010904/DTD/svg10.dtd">
<svg version="1.0" xmlns="http://www.w3.org/2000/svg"
 width="1024.000000pt" height="495.000000pt" viewBox="0 0 1024.000000 495.000000"
 preserveAspectRatio="xMidYMid meet">

<g transform="translate(0.000000,495.000000) scale(0.100000,-0.100000)"
fill="#000000" stroke="none">
<path d="M4897 3939 c-9 -5 -24 -23 -32 -40 -9 -16 -83 -303 -165 -637 -188
-764 -205 -828 -225 -859 -22 -34 -73 -53 -140 -53 -66 0 -112 21 -125 56 -6
15 -10 220 -10 495 l0 469 -91 0 -90 0 3 -512 3 -513 25 -45 c29 -51 81 -85
147 -95 76 -11 236 -6 288 10 60 17 115 69 144 135 18 43 146 550 262 1043 48
202 69 266 69 209 0 -18 111 -559 150 -732 11 -47 62 -285 115 -530 53 -245
125 -578 162 -740 36 -162 68 -305 71 -318 11 -54 105 -82 151 -44 14 11 34
66 65 172 72 249 174 595 186 624 5 15 10 32 10 37 0 5 -40 9 -89 9 l-89 0
-20 -77 c-56 -209 -102 -398 -102 -414 0 -11 -4 -19 -8 -19 -5 0 -20 55 -35
123 -14 67 -62 289 -107 492 -44 204 -96 442 -115 530 -19 88 -78 360 -130
605 -120 556 -129 590 -156 613 -24 19 -93 23 -122 6z"/>
<path d="M2350 3367 c-68 -34 -78 -140 -17 -177 36 -22 104 -26 127 -7 46 35
64 103 40 148 -23 43 -100 61 -150 36z"/>
<path d="M6085 3369 c-195 -19 -315 -132 -323 -304 -5 -88 9 -142 51 -197 46
-60 118 -100 281 -154 195 -65 243 -98 253 -173 10 -74 -12 -112 -87 -151
-102 -52 -327 -24 -445 55 -20 14 -38 25 -41 25 -3 0 -3 -39 -2 -87 l3 -88 55
-27 c90 -45 182 -60 328 -57 120 4 131 6 194 37 121 59 178 152 178 287 0 117
-51 206 -153 264 -29 16 -111 49 -182 72 -156 50 -194 68 -229 109 -32 39 -35
100 -6 147 65 108 298 110 503 5 4 -2 7 37 7 86 l0 90 -47 20 c-84 36 -224 53
-338 41z"/>
<path d="M1124 3333 c34 -93 97 -252 328 -836 l110 -278 111 3 112 3 77 205
c43 113 141 367 218 566 77 199 140 364 140 368 0 4 -46 5 -102 4 l-101 -3
-64 -180 c-125 -349 -175 -491 -226 -637 -28 -82 -54 -148 -57 -148 -3 0 -41
100 -85 223 -44 122 -123 339 -176 482 l-96 260 -101 3 -101 3 13 -38z"/>
<path d="M2740 3125 l0 -95 -70 0 -70 0 0 -80 0 -80 70 0 70 0 0 -235 c0 -133
5 -256 11 -286 14 -65 66 -120 132 -138 51 -15 166 -11 210 7 26 11 27 14 27
87 0 72 -1 75 -19 65 -11 -5 -42 -10 -70 -10 -107 0 -111 9 -111 290 l0 220
100 0 100 0 0 80 0 80 -100 0 -100 0 0 95 0 95 -90 0 -90 0 0 -95z"/>
<path d="M7873 3026 c-54 -18 -108 -51 -133 -83 l-20 -26 0 57 0 56 -90 0 -90
0 0 -405 0 -405 90 0 90 0 0 253 c0 142 5 268 10 289 23 83 125 137 220 117
61 -13 97 -41 121 -93 17 -37 19 -70 19 -303 l0 -263 91 0 90 0 -3 303 -3 302
-26 56 c-31 65 -66 101 -129 130 -57 27 -178 35 -237 15z"/>
<path d="M2310 2625 l0 -405 90 0 90 0 -2 403 -3 402 -87 3 -88 3 0 -406z"/>
<path d="M3421 3014 c-30 -8 -73 -25 -95 -37 l-41 -22 -3 -89 -3 -89 28 19
c142 93 312 99 376 13 11 -15 21 -46 24 -71 l5 -44 -133 1 c-152 0 -209 -14
-272 -66 -95 -78 -112 -234 -36 -337 82 -112 287 -130 399 -35 35 30 40 32 40
15 0 -47 8 -52 92 -52 l79 0 -3 303 -3 302 -27 57 c-31 66 -85 110 -161 133
-63 19 -195 18 -266 -1z m279 -449 c19 -12 6 -122 -17 -154 -26 -36 -99 -71
-146 -71 -81 0 -127 42 -127 116 0 63 30 92 117 114 42 10 154 7 173 -5z"/>
<path d="M6583 3018 c24 -60 283 -651 311 -712 20 -43 36 -83 36 -88 0 -6 -34
-87 -75 -180 -42 -94 -75 -171 -73 -172 2 -1 46 1 97 4 l95 5 53 125 c30 69
130 310 224 535 93 226 176 425 184 443 8 18 15 37 15 43 0 6 -35 9 -92 7
l-93 -3 -46 -115 c-25 -63 -79 -200 -120 -304 l-73 -189 -17 39 c-9 21 -66
159 -125 306 l-109 268 -99 0 c-75 0 -97 -3 -93 -12z"/>
<path d="M8687 3019 c-178 -42 -297 -206 -297 -409 0 -192 105 -337 283 -392
94 -28 245 -23 332 13 l60 24 3 88 3 88 -24 -15 c-79 -52 -229 -71 -320 -40
-163 55 -209 285 -85 420 46 50 109 74 194 74 56 0 167 -30 199 -54 11 -9 23
-16 28 -16 4 0 7 39 7 88 l0 87 -40 18 c-22 9 -59 21 -82 27 -52 12 -209 11
-261 -1z"/>
</g>
</svg>
